<svg width="90" height="90" viewBox="0 0 90 90" fill="none" xmlns="http://www.w3.org/2000/svg">
<g clip-path="url(#clip0_18_166)">
<path d="M69.928 70.5974L68.928 70.5974L68.928 70.5974L69.928 70.5974ZM19.2221 9.89041C19.6126 9.49989 20.2458 9.49991 20.6363 9.89045L27.0001 16.2546C27.3906 16.6451 27.3906 17.2783 27.0001 17.6688C26.6095 18.0593 25.9764 18.0593 25.5859 17.6688L19.9292 12.0117L14.2722 17.6685C13.8816 18.059 13.2485 18.0589 12.8579 17.6684C12.4674 17.2779 12.4674 16.6447 12.858 16.2542L19.2221 9.89041ZM19.9287 30.5968L18.9287 30.5968L18.9287 30.5968L19.9287 30.5968ZM39.9287 50.5973L39.9287 51.5973L39.9287 51.5973L39.9287 50.5973ZM49.9279 50.5973L49.9279 49.5973L49.9279 49.5973L49.9279 50.5973ZM70.928 70.5974L70.928 80.5966L68.928 80.5966L68.928 70.5974L70.928 70.5974ZM20.9292 10.5976L20.9287 30.5968L18.9287 30.5968L18.9292 10.5975L20.9292 10.5976ZM39.9287 49.5973L49.9279 49.5973L49.9279 51.5973L39.9287 51.5973L39.9287 49.5973ZM20.9287 30.5968C20.9284 41.0905 29.4351 49.5974 39.9287 49.5973L39.9287 51.5973C28.3305 51.5974 18.9284 42.195 18.9287 30.5968L20.9287 30.5968ZM68.928 70.5974C68.928 60.1039 60.4214 51.5973 49.9279 51.5973L49.9279 49.5973C61.5259 49.5973 70.928 58.9994 70.928 70.5974L68.928 70.5974Z" fill="#7680CD"/>
</g>
<defs>
<clipPath id="clip0_18_166">
<rect width="90" height="90" fill="white"/>
</clipPath>
</defs>
</svg>
