<svg width="90" height="250" viewBox="0 0 90 250" fill="none" xmlns="http://www.w3.org/2000/svg">
<path d="M20.7071 9.29289C20.3166 8.90237 19.6834 8.90237 19.2929 9.29289L12.9289 15.6569C12.5384 16.0474 12.5384 16.6805 12.9289 17.0711C13.3195 17.4616 13.9526 17.4616 14.3431 17.0711L20 11.4142L25.6569 17.0711C26.0474 17.4616 26.6805 17.4616 27.0711 17.0711C27.4616 16.6805 27.4616 16.0474 27.0711 15.6569L20.7071 9.29289ZM21 240V230H19V240H21ZM40 211H50V209H40V211ZM71 190L71 60H69L69 190H71ZM50 39H40V41H50V39ZM21 20V10H19V20H21ZM40 39C29.5066 39 21 30.4934 21 20H19C19 31.598 28.402 41 40 41V39ZM71 60C71 48.402 61.598 39 50 39V41C60.4934 41 69 49.5066 69 60H71ZM50 211C61.598 211 71 201.598 71 190H69C69 200.493 60.4934 209 50 209V211ZM21 230C21 219.507 29.5066 211 40 211V209C28.402 209 19 218.402 19 230H21Z" fill="#CD7686"/>
</svg>
