<svg width="90" height="90" viewBox="0 0 90 90" fill="none" xmlns="http://www.w3.org/2000/svg">
<g clip-path="url(#clip0_18_164)">
<path d="M69.9988 20.0002L68.9988 20.0002L68.9988 20.0002L69.9988 20.0002ZM70.7059 9.29381C70.3153 8.90328 69.6822 8.90328 69.2916 9.29381L62.9277 15.6578C62.5372 16.0483 62.5372 16.6815 62.9277 17.072C63.3182 17.4625 63.9514 17.4625 64.3419 17.072L69.9988 11.4151L75.6556 17.072C76.0461 17.4625 76.6793 17.4625 77.0698 17.072C77.4604 16.6814 77.4604 16.0483 77.0698 15.6578L70.7059 9.29381ZM19.9995 60.0007L18.9995 60.0007L18.9995 60.0007L19.9995 60.0007ZM39.9995 40.0002L39.9995 39.0002L39.9995 39.0002L39.9995 40.0002ZM49.9987 40.0002L49.9987 41.0002L49.9987 41.0002L49.9987 40.0002ZM70.9988 20.0002L70.9988 10.0009L68.9988 10.0009L68.9988 20.0002L70.9988 20.0002ZM21 80L20.9995 60.0007L18.9995 60.0007L19 80L21 80ZM39.9995 41.0002L49.9987 41.0002L49.9987 39.0002L39.9995 39.0002L39.9995 41.0002ZM20.9995 60.0007C20.9992 49.5071 29.5059 41.0002 39.9995 41.0002L39.9995 39.0002C28.4013 39.0002 18.9992 48.4025 18.9995 60.0007L20.9995 60.0007ZM68.9988 20.0002C68.9988 30.4936 60.4922 39.0002 49.9987 39.0002L49.9987 41.0002C61.5967 41.0002 70.9988 31.5982 70.9988 20.0002L68.9988 20.0002Z" fill="#7680CD"/>
</g>
<defs>
<clipPath id="clip0_18_164">
<rect width="90" height="90" fill="white"/>
</clipPath>
</defs>
</svg>
